<svg id="Capa_1" data-name="Capa 1" xmlns="http://www.w3.org/2000/svg" viewBox="0 0 93 32">
  <defs>
    <style>.cls-1{fill:none;}.cls-2{fill:#21125E;}.cls-2,.cls-3{fill-rule:evenodd;}.cls-3{fill:rgba(247,230,4,0.959);}</style>
  </defs>
  <rect class="cls-1" width="32" height="16"/>
  <path class="cls-2" d="M1.7,13.12a1.14,1.14,0,0,1,.43.08l.09-.74a1.57,1.57,0,0,0-.67-.12c-.68,0-1.06.55-1.06,1.58v.37H0v.77H.49v4.39H1.2V15.06h.92v-.77H1.2v-.37c0-.54.18-.8.5-.8Zm2.52,1.1c-.38,0-.69.22-.87.79v-.72H2.64v5.16h.71V16.88c0-1.14.28-1.73.78-1.73a1.27,1.27,0,0,1,.34,0l.07-.92a1.25,1.25,0,0,0-.32,0Zm3.44,3a4.14,4.14,0,0,0,.09-.81c0-1.29-.56-2.17-1.43-2.17s-1.57,1.07-1.57,2.65.61,2.67,1.63,2.67a1.77,1.77,0,0,0,1.11-.35l-.15-.74a1.36,1.36,0,0,1-.9.32c-.55,0-.89-.53-1-1.57ZM6.32,15c.48,0,.76.57.73,1.5H5.48c.06-1,.36-1.5.84-1.5Zm4-.77a1.16,1.16,0,0,0-1,.81v-.73H8.55v5.16h.71V16c.14-.68.47-1.07.84-1.07s.63.31.63,1v3.49h.71V16c0-1.17-.41-1.75-1.15-1.75Zm4.52,5.24v-.76H13l1.78-3.89v-.51H12.17v.77h1.71l-1.76,3.88v.51Zm1.44,0v-7h-.71v7Zm2.11-5.25a2.19,2.19,0,0,0-1.06.27l.1.76a1.69,1.69,0,0,1,.88-.27c.51,0,.8.3.8,1.1v.36a4.57,4.57,0,0,0-.86-.08c-.86,0-1.25.65-1.25,1.59s.45,1.61,1.06,1.61a1.12,1.12,0,0,0,1-.86v.77h.7V16.09c0-1.27-.43-1.89-1.42-1.89Zm-.1,4.56c-.37,0-.62-.25-.62-.86s.25-.89.73-.89a3.84,3.84,0,0,1,.71.06v.16c0,.91-.3,1.53-.82,1.53Zm4.23-4.55a1.17,1.17,0,0,0-1,.81v-.73h-.71v5.16h.71V16c.14-.68.47-1.07.84-1.07s.63.31.63,1v3.49h.71V16c0-1.17-.41-1.75-1.14-1.75Zm3.28,5.33a1.2,1.2,0,0,0,1.1-.8v.71h.71v-7h-.71V15a1.19,1.19,0,0,0-1.09-.81c-.83,0-1.39.85-1.39,2.65s.55,2.68,1.38,2.68Zm.2-.77c-.49,0-.85-.54-.85-1.91S25.47,15,26,15s.9.72.9,2-.38,1.85-.9,1.85Zm6-6v.82l-2.1,5.82h-.8l2.06-5.81H28.49v-.83Z"/>
  <path class="cls-3" d="M22.3,22.61q-5.51.24-7.29-2.45l-1.15.27q1.7,2.3,5.79,2.59,8,.43,10.75-3.69l-.26-.13C28.45,21.35,25.84,22.48,22.3,22.61Z"/>
  <rect class="cls-1" width="32" height="16"/>
</svg>
