<svg id="Capa_1" data-name="Capa 1" xmlns="http://www.w3.org/2000/svg" viewBox="0 0 36 36"><defs><style>.cls-1{fill:none;}.cls-2{fill:#312782;}.cls-2,.cls-3{fill-rule:evenodd;}.cls-3{fill:#ffec00;}</style></defs><rect class="cls-1" width="36" height="36"/><path class="cls-2" d="M1.92,14.76a1.24,1.24,0,0,1,.48.09L2.5,14a2,2,0,0,0-.75-.12c-.77,0-1.2.62-1.2,1.77v.42H0v.86H.55v4.94h.8V16.94h1v-.86h-1v-.42c0-.61.21-.9.57-.9ZM4.75,16c-.43,0-.78.25-1,.89v-.81H3v5.8h.79V19c0-1.28.32-1.95.89-1.95a1.65,1.65,0,0,1,.38.05l.07-1A1.12,1.12,0,0,0,4.75,16Zm3.86,3.34a4.26,4.26,0,0,0,.11-.91C8.72,17,8.09,16,7.11,16,6,16,5.35,17.19,5.35,19S6,22,7.17,22a2,2,0,0,0,1.25-.4l-.16-.83a1.6,1.6,0,0,1-1,.36c-.62,0-1-.6-1.08-1.77Zm-1.5-2.48c.54,0,.85.64.82,1.69H6.17c.06-1.12.4-1.69.94-1.69ZM11.58,16a1.33,1.33,0,0,0-1.17.92v-.82H9.62v5.8h.79V18c.17-.76.54-1.19.95-1.19s.71.34.71,1.11v3.92h.8V18c0-1.32-.47-2-1.29-2Zm5.08,5.9V21h-2l2-4.37v-.57H13.69v.86h1.93l-2,4.36v.58Zm1.62,0V14h-.8v7.89ZM20.66,16a2.48,2.48,0,0,0-1.2.31l.11.85a1.91,1.91,0,0,1,1-.29c.58,0,.91.33.91,1.22v.41a5.77,5.77,0,0,0-1-.08c-1,0-1.41.72-1.41,1.78S19.6,22,20.28,22a1.28,1.28,0,0,0,1.19-1v.87h.79V18.1c0-1.42-.49-2.13-1.6-2.13Zm-.12,5.14c-.41,0-.69-.29-.69-1s.27-1,.81-1a3.42,3.42,0,0,1,.81.08v.17c0,1-.34,1.73-.93,1.73ZM25.3,16a1.3,1.3,0,0,0-1.17.92v-.82h-.8v5.8h.8V18c.16-.76.53-1.19.95-1.19s.71.34.71,1.11v3.92h.79V18c0-1.32-.46-2-1.28-2ZM29,22a1.36,1.36,0,0,0,1.24-.91v.8H31V14h-.79V16.9A1.36,1.36,0,0,0,29,16c-.93,0-1.56,1-1.56,3s.62,3,1.55,3Zm.22-.87c-.55,0-.95-.61-.95-2.15s.39-2.12.95-2.12,1,.8,1,2.19-.43,2.08-1,2.08ZM36,14.41v.92l-2.36,6.55h-.91l2.33-6.53h-3v-.94Z" transform="translate(0 0)"/><path class="cls-3" d="M25.09,25.44q-6.19.25-8.21-2.76l-1.29.3c1.27,1.72,3.45,2.7,6.52,2.92q8.92.5,12.09-4.15l-.3-.15Q31.05,25.22,25.09,25.44Z" transform="translate(0 0)"/></svg>